<svg xmlns="http://www.w3.org/2000/svg" viewBox="0 0 100 100">
  <circle cx="50" cy="50" r="48" fill="#F5C518" />
  <!-- Cannabis leaf silhouette in black -->
  <path d="M50,15 C51,25 53,35 50,48 C47,35 49,25 50,15 Z" fill="#000" />
  <path d="M50,48 C58,38 68,32 75,35 C68,40 59,44 50,48 Z" fill="#000" />
  <path d="M50,48 C42,38 32,32 25,35 C32,40 41,44 50,48 Z" fill="#000" />
  <path d="M50,48 C60,45 74,47 80,55 C71,55 60,51 50,48 Z" fill="#000" />
  <path d="M50,48 C40,45 26,47 20,55 C29,55 40,51 50,48 Z" fill="#000" />
  <path d="M50,48 C57,55 68,64 70,72 C63,70 56,60 50,48 Z" fill="#000" />
  <path d="M50,48 C43,55 32,64 30,72 C37,70 44,60 50,48 Z" fill="#000" />
  <!-- Stem -->
  <path d="M49,48 C49,65 48,78 45,85 C47,85 51,75 51,48 Z" fill="#000" />
</svg>
